<svg width="605" height="116" viewBox="0 0 605 116" fill="none" xmlns="http://www.w3.org/2000/svg">
<mask id="path-1-outside-1" maskUnits="userSpaceOnUse" x="0" y="0" width="605" height="116" fill="black">
<rect fill="white" width="605" height="116"/>
<path d="M106.55 73.25H94.55V107.3H92.75C91.65 106.2 90.75 105.45 90.05 105.05C89.35 104.65 88.25 104.45 86.75 104.45C84.95 104.45 83.1 104.95 81.2 105.95C79.4 106.85 77.25 107.9 74.75 109.1C72.35 110.3 69.5 111.35 66.2 112.25C62.9 113.25 58.9 113.75 54.2 113.75C47.1 113.75 40.8 112.6 35.3 110.3C29.8 107.9 24.5 104.15 19.4 99.05C14.4 94.05 10.25 88.15 6.95 81.35C3.65 74.55 2 66.9 2 58.4C2 52.7 2.65 47.6 3.95 43.1C5.25 38.5 6.8 34.5 8.6 31.1C10.5 27.7 12.4 24.85 14.3 22.55C16.3 20.25 17.95 18.45 19.25 17.15C23.75 12.65 28.9 9 34.7 6.2C40.5 3.4 47.1 2 54.5 2C58.3 2 61.4 2.3 63.8 2.9C66.3 3.5 68.45 4.2 70.25 5C72.05 5.7 73.65 6.35 75.05 6.95C76.55 7.55 78.2 7.85 80 7.85C82 7.85 83.4 7.6 84.2 7.1C85.1 6.5 85.95 5.7 86.75 4.7H89V34.7H87.35C86.95 32.1 86.15 29.05 84.95 25.55C83.85 22.05 82.05 18.7 79.55 15.5C77.15 12.3 73.9 9.6 69.8 7.4C65.8 5.2 60.65 4.1 54.35 4.1C46.85 4.1 40.8 5.7 36.2 8.9C31.7 12 28.15 16.15 25.55 21.35C23.05 26.45 21.35 32.25 20.45 38.75C19.65 45.25 19.25 51.8 19.25 58.4C19.25 62.9 19.45 67.4 19.85 71.9C20.25 76.4 20.9 80.65 21.8 84.65C22.8 88.65 24.15 92.35 25.85 95.75C27.55 99.15 29.75 102.05 32.45 104.45C35.45 107.15 38.55 109.05 41.75 110.15C44.95 111.15 49.1 111.65 54.2 111.65C57.3 111.65 60.4 111.15 63.5 110.15C66.6 109.05 69.35 107.45 71.75 105.35C74.25 103.25 76.25 100.6 77.75 97.4C79.35 94.1 80.15 90.25 80.15 85.85V73.25H60.8V71.15H106.55V73.25Z"/>
<path d="M162.635 72.2C162.835 70.8 162.935 69.5 162.935 68.3C162.935 67.1 162.935 65.85 162.935 64.55C162.935 61.15 162.585 58.35 161.885 56.15C161.285 53.95 160.385 52.2 159.185 50.9C158.085 49.6 156.685 48.7 154.985 48.2C153.385 47.6 151.635 47.3 149.735 47.3C146.335 47.3 143.535 48 141.335 49.4C139.135 50.7 137.385 52.5 136.085 54.8C134.785 57.1 133.785 59.75 133.085 62.75C132.485 65.75 132.085 68.9 131.885 72.2H162.635ZM131.735 74.3C131.735 75.3 131.685 76.35 131.585 77.45C131.585 78.45 131.585 79.75 131.585 81.35C131.585 84.65 131.785 88.1 132.185 91.7C132.585 95.3 133.435 98.55 134.735 101.45C136.135 104.35 138.135 106.75 140.735 108.65C143.435 110.55 146.985 111.5 151.385 111.5C155.785 111.5 159.385 110.85 162.185 109.55C165.085 108.25 167.335 106.7 168.935 104.9C170.635 103 171.885 101.1 172.685 99.2C173.485 97.3 174.085 95.75 174.485 94.55L176.735 95C176.435 96.1 175.835 97.7 174.935 99.8C174.135 101.8 172.785 103.85 170.885 105.95C169.085 107.95 166.585 109.75 163.385 111.35C160.285 112.85 156.235 113.6 151.235 113.6C146.235 113.6 141.585 112.8 137.285 111.2C133.085 109.6 129.435 107.3 126.335 104.3C123.235 101.3 120.835 97.75 119.135 93.65C117.435 89.45 116.585 84.8 116.585 79.7C116.585 75.3 117.435 71.05 119.135 66.95C120.935 62.75 123.335 59.05 126.335 55.85C129.435 52.65 133.035 50.1 137.135 48.2C141.235 46.2 145.635 45.2 150.335 45.2C153.135 45.2 156.135 45.7 159.335 46.7C162.535 47.7 165.485 49.35 168.185 51.65C170.985 53.85 173.285 56.8 175.085 60.5C176.985 64.2 177.935 68.8 177.935 74.3H131.735Z"/>
<path d="M188.585 109.4H200.135V49.25H188.585V47.15H212.735V63.2H213.035C213.635 61.9 214.485 60.25 215.585 58.25C216.785 56.25 218.385 54.3 220.385 52.4C222.385 50.5 224.885 48.9 227.885 47.6C230.885 46.2 234.535 45.5 238.835 45.5C245.435 45.5 250.785 47.1 254.885 50.3C259.085 53.5 261.185 58.6 261.185 65.6V109.4H272.735V111.5H236.735V109.4H248.285V60.95C248.285 57.05 247.335 53.85 245.435 51.35C243.635 48.85 240.785 47.6 236.885 47.6C233.685 47.6 230.635 48.3 227.735 49.7C224.835 51.1 222.285 53.05 220.085 55.55C217.885 58.05 216.135 61 214.835 64.4C213.635 67.8 213.035 71.5 213.035 75.5V109.4H224.585V111.5H188.585V109.4Z"/>
<path d="M329.334 72.2C329.534 70.8 329.634 69.5 329.634 68.3C329.634 67.1 329.634 65.85 329.634 64.55C329.634 61.15 329.284 58.35 328.584 56.15C327.984 53.95 327.084 52.2 325.884 50.9C324.784 49.6 323.384 48.7 321.684 48.2C320.084 47.6 318.334 47.3 316.434 47.3C313.034 47.3 310.234 48 308.034 49.4C305.834 50.7 304.084 52.5 302.784 54.8C301.484 57.1 300.484 59.75 299.784 62.75C299.184 65.75 298.784 68.9 298.584 72.2H329.334ZM298.434 74.3C298.434 75.3 298.384 76.35 298.284 77.45C298.284 78.45 298.284 79.75 298.284 81.35C298.284 84.65 298.484 88.1 298.884 91.7C299.284 95.3 300.134 98.55 301.434 101.45C302.834 104.35 304.834 106.75 307.434 108.65C310.134 110.55 313.684 111.5 318.084 111.5C322.484 111.5 326.084 110.85 328.884 109.55C331.784 108.25 334.034 106.7 335.634 104.9C337.334 103 338.584 101.1 339.384 99.2C340.184 97.3 340.784 95.75 341.184 94.55L343.434 95C343.134 96.1 342.534 97.7 341.634 99.8C340.834 101.8 339.484 103.85 337.584 105.95C335.784 107.95 333.284 109.75 330.084 111.35C326.984 112.85 322.934 113.6 317.934 113.6C312.934 113.6 308.284 112.8 303.984 111.2C299.784 109.6 296.134 107.3 293.034 104.3C289.934 101.3 287.534 97.75 285.834 93.65C284.134 89.45 283.284 84.8 283.284 79.7C283.284 75.3 284.134 71.05 285.834 66.95C287.634 62.75 290.034 59.05 293.034 55.85C296.134 52.65 299.734 50.1 303.834 48.2C307.934 46.2 312.334 45.2 317.034 45.2C319.834 45.2 322.834 45.7 326.034 46.7C329.234 47.7 332.184 49.35 334.884 51.65C337.684 53.85 339.984 56.8 341.784 60.5C343.684 64.2 344.634 68.8 344.634 74.3H298.434Z"/>
<path d="M355.584 109.4H367.134V49.25H355.584V47.15H379.734V62.3H380.034C380.434 60.8 381.084 59.1 381.984 57.2C382.884 55.3 384.134 53.5 385.734 51.8C387.334 50 389.234 48.5 391.434 47.3C393.734 46.1 396.484 45.5 399.684 45.5C401.984 45.5 403.984 45.9 405.684 46.7C407.384 47.4 408.784 48.35 409.884 49.55C410.984 50.65 411.784 51.95 412.284 53.45C412.784 54.95 413.034 56.45 413.034 57.95C413.034 61.25 412.284 63.45 410.784 64.55C409.284 65.65 407.534 66.2 405.534 66.2C401.134 66.2 398.934 64.8 398.934 62C398.934 61.1 399.034 60.4 399.234 59.9C399.434 59.3 399.634 58.75 399.834 58.25C400.134 57.65 400.384 57 400.584 56.3C400.784 55.6 400.884 54.6 400.884 53.3C400.884 50.1 399.134 48.5 395.634 48.5C394.034 48.5 392.334 49.1 390.534 50.3C388.734 51.5 387.034 53.25 385.434 55.55C383.934 57.85 382.634 60.65 381.534 63.95C380.534 67.15 380.034 70.85 380.034 75.05V109.4H393.084V111.5H355.584V109.4Z"/>
<path d="M458.068 74.75H457.768C457.568 76.05 455.918 77.35 452.818 78.65L441.568 83.15C438.368 84.45 435.918 86.3 434.218 88.7C432.518 91 431.668 93.9 431.668 97.4C431.668 98.9 431.818 100.45 432.118 102.05C432.418 103.65 432.968 105.1 433.768 106.4C434.568 107.6 435.668 108.6 437.068 109.4C438.568 110.2 440.468 110.6 442.768 110.6C446.068 110.6 448.718 109.9 450.718 108.5C452.818 107.1 454.368 105.35 455.368 103.25C456.468 101.15 457.168 98.9 457.468 96.5C457.868 94 458.068 91.75 458.068 89.75V74.75ZM484.318 109.85C483.018 110.85 481.468 111.7 479.668 112.4C477.868 113.2 475.668 113.6 473.068 113.6C468.268 113.6 464.768 112.6 462.568 110.6C460.468 108.5 459.018 105.6 458.218 101.9H457.918C457.518 102.8 456.968 103.95 456.268 105.35C455.568 106.65 454.468 107.95 452.968 109.25C451.568 110.45 449.668 111.45 447.268 112.25C444.868 113.15 441.818 113.6 438.118 113.6C433.918 113.6 430.568 113.1 428.068 112.1C425.568 111.2 423.618 110.05 422.218 108.65C420.818 107.25 419.868 105.7 419.368 104C418.968 102.2 418.768 100.55 418.768 99.05C418.768 95.55 419.468 92.75 420.868 90.65C422.268 88.55 424.068 86.9 426.268 85.7C428.568 84.4 431.068 83.35 433.768 82.55C436.568 81.75 439.368 80.9 442.168 80C445.468 78.9 448.168 77.95 450.268 77.15C452.468 76.35 454.168 75.4 455.368 74.3C456.568 73.1 457.368 71.65 457.768 69.95C458.268 68.15 458.518 65.75 458.518 62.75C458.518 60.35 458.368 58.2 458.068 56.3C457.768 54.4 457.218 52.8 456.418 51.5C455.618 50.1 454.468 49.05 452.968 48.35C451.468 47.65 449.468 47.3 446.968 47.3C443.668 47.3 440.918 47.9 438.718 49.1C436.618 50.2 435.568 52.05 435.568 54.65C435.568 56.35 435.718 58.05 436.018 59.75C436.318 61.35 436.468 62.55 436.468 63.35C436.468 64.75 435.968 65.95 434.968 66.95C433.968 67.85 432.518 68.3 430.618 68.3C427.318 68.3 425.268 67.7 424.468 66.5C423.668 65.3 423.268 63.75 423.268 61.85C423.268 59.65 423.768 57.55 424.768 55.55C425.768 53.55 427.218 51.8 429.118 50.3C431.118 48.7 433.568 47.45 436.468 46.55C439.468 45.65 442.868 45.2 446.668 45.2C451.268 45.2 455.118 45.8 458.218 47C461.318 48.1 463.818 49.65 465.718 51.65C467.618 53.55 468.968 55.75 469.768 58.25C470.568 60.65 470.968 63.2 470.968 65.9V103.25C470.968 106.15 471.418 108.1 472.318 109.1C473.218 110.1 474.518 110.6 476.218 110.6C477.318 110.6 478.468 110.4 479.668 110C480.868 109.6 482.018 109 483.118 108.2L484.318 109.85Z"/>
<path d="M487.385 47.15H498.935V27.8C499.735 28.1 500.485 28.35 501.185 28.55C501.885 28.75 503.085 28.85 504.785 28.85C506.285 28.85 507.585 28.7 508.685 28.4C509.785 28 510.835 27.4 511.835 26.6V47.15H533.135V49.25H511.835V98.3C511.835 101.1 512.085 103.4 512.585 105.2C513.185 106.9 513.935 108.25 514.835 109.25C515.735 110.15 516.685 110.75 517.685 111.05C518.785 111.35 519.835 111.5 520.835 111.5C524.335 111.5 527.135 110.25 529.235 107.75C531.435 105.15 532.835 102.2 533.435 98.9L535.535 99.65C535.235 100.95 534.785 102.4 534.185 104C533.585 105.6 532.635 107.15 531.335 108.65C530.135 110.05 528.535 111.2 526.535 112.1C524.535 113.1 522.035 113.6 519.035 113.6C511.535 113.6 506.285 112.15 503.285 109.25C500.385 106.35 498.935 102.25 498.935 96.95V49.25H487.385V47.15Z"/>
<path d="M587.586 72.2C587.786 70.8 587.886 69.5 587.886 68.3C587.886 67.1 587.886 65.85 587.886 64.55C587.886 61.15 587.536 58.35 586.836 56.15C586.236 53.95 585.336 52.2 584.136 50.9C583.036 49.6 581.636 48.7 579.936 48.2C578.336 47.6 576.586 47.3 574.686 47.3C571.286 47.3 568.486 48 566.286 49.4C564.086 50.7 562.336 52.5 561.036 54.8C559.736 57.1 558.736 59.75 558.036 62.75C557.436 65.75 557.036 68.9 556.836 72.2H587.586ZM556.686 74.3C556.686 75.3 556.636 76.35 556.536 77.45C556.536 78.45 556.536 79.75 556.536 81.35C556.536 84.65 556.736 88.1 557.136 91.7C557.536 95.3 558.386 98.55 559.686 101.45C561.086 104.35 563.086 106.75 565.686 108.65C568.386 110.55 571.936 111.5 576.336 111.5C580.736 111.5 584.336 110.85 587.136 109.55C590.036 108.25 592.286 106.7 593.886 104.9C595.586 103 596.836 101.1 597.636 99.2C598.436 97.3 599.036 95.75 599.436 94.55L601.686 95C601.386 96.1 600.786 97.7 599.886 99.8C599.086 101.8 597.736 103.85 595.836 105.95C594.036 107.95 591.536 109.75 588.336 111.35C585.236 112.85 581.186 113.6 576.186 113.6C571.186 113.6 566.536 112.8 562.236 111.2C558.036 109.6 554.386 107.3 551.286 104.3C548.186 101.3 545.786 97.75 544.086 93.65C542.386 89.45 541.536 84.8 541.536 79.7C541.536 75.3 542.386 71.05 544.086 66.95C545.886 62.75 548.286 59.05 551.286 55.85C554.386 52.65 557.986 50.1 562.086 48.2C566.186 46.2 570.586 45.2 575.286 45.2C578.086 45.2 581.086 45.7 584.286 46.7C587.486 47.7 590.436 49.35 593.136 51.65C595.936 53.85 598.236 56.8 600.036 60.5C601.936 64.2 602.886 68.8 602.886 74.3H556.686Z"/>
</mask>
<path d="M106.55 73.25H94.55V107.3H92.75C91.65 106.2 90.75 105.45 90.05 105.05C89.35 104.65 88.25 104.45 86.75 104.45C84.95 104.45 83.1 104.95 81.2 105.95C79.4 106.85 77.25 107.9 74.75 109.1C72.35 110.3 69.5 111.35 66.2 112.25C62.9 113.25 58.9 113.75 54.2 113.75C47.1 113.75 40.8 112.6 35.3 110.3C29.8 107.9 24.5 104.15 19.4 99.05C14.4 94.05 10.25 88.15 6.95 81.35C3.65 74.55 2 66.9 2 58.4C2 52.7 2.65 47.6 3.95 43.1C5.25 38.5 6.8 34.5 8.6 31.1C10.5 27.7 12.4 24.85 14.3 22.55C16.3 20.25 17.95 18.45 19.25 17.15C23.75 12.65 28.9 9 34.7 6.2C40.5 3.4 47.1 2 54.5 2C58.3 2 61.4 2.3 63.8 2.9C66.3 3.5 68.45 4.2 70.25 5C72.05 5.7 73.65 6.35 75.05 6.95C76.55 7.55 78.2 7.85 80 7.85C82 7.85 83.4 7.6 84.2 7.1C85.1 6.5 85.95 5.7 86.75 4.7H89V34.7H87.35C86.95 32.1 86.15 29.05 84.95 25.55C83.85 22.05 82.05 18.7 79.55 15.5C77.15 12.3 73.9 9.6 69.8 7.4C65.8 5.2 60.65 4.1 54.35 4.1C46.85 4.1 40.8 5.7 36.2 8.9C31.7 12 28.15 16.15 25.55 21.35C23.05 26.45 21.35 32.25 20.45 38.75C19.65 45.25 19.25 51.8 19.25 58.4C19.25 62.9 19.45 67.4 19.85 71.9C20.25 76.4 20.9 80.65 21.8 84.65C22.8 88.65 24.15 92.35 25.85 95.75C27.55 99.15 29.75 102.05 32.45 104.45C35.45 107.15 38.55 109.05 41.75 110.15C44.95 111.15 49.1 111.65 54.2 111.65C57.3 111.65 60.4 111.15 63.5 110.15C66.6 109.05 69.35 107.45 71.75 105.35C74.25 103.25 76.25 100.6 77.75 97.4C79.35 94.1 80.15 90.25 80.15 85.85V73.25H60.8V71.15H106.55V73.25Z" stroke="black" stroke-width="1" mask="url(#path-1-outside-1)"/>
<path d="M162.635 72.2C162.835 70.8 162.935 69.5 162.935 68.3C162.935 67.1 162.935 65.85 162.935 64.55C162.935 61.15 162.585 58.35 161.885 56.15C161.285 53.95 160.385 52.2 159.185 50.9C158.085 49.6 156.685 48.7 154.985 48.2C153.385 47.6 151.635 47.3 149.735 47.3C146.335 47.3 143.535 48 141.335 49.4C139.135 50.7 137.385 52.5 136.085 54.8C134.785 57.1 133.785 59.75 133.085 62.75C132.485 65.75 132.085 68.9 131.885 72.2H162.635ZM131.735 74.3C131.735 75.3 131.685 76.35 131.585 77.45C131.585 78.45 131.585 79.75 131.585 81.35C131.585 84.65 131.785 88.1 132.185 91.7C132.585 95.3 133.435 98.55 134.735 101.45C136.135 104.35 138.135 106.75 140.735 108.65C143.435 110.55 146.985 111.5 151.385 111.5C155.785 111.5 159.385 110.85 162.185 109.55C165.085 108.25 167.335 106.7 168.935 104.9C170.635 103 171.885 101.1 172.685 99.2C173.485 97.3 174.085 95.75 174.485 94.55L176.735 95C176.435 96.1 175.835 97.7 174.935 99.8C174.135 101.8 172.785 103.85 170.885 105.95C169.085 107.95 166.585 109.75 163.385 111.35C160.285 112.85 156.235 113.6 151.235 113.6C146.235 113.6 141.585 112.8 137.285 111.2C133.085 109.6 129.435 107.3 126.335 104.3C123.235 101.3 120.835 97.75 119.135 93.65C117.435 89.45 116.585 84.8 116.585 79.7C116.585 75.3 117.435 71.05 119.135 66.95C120.935 62.75 123.335 59.05 126.335 55.85C129.435 52.65 133.035 50.1 137.135 48.2C141.235 46.2 145.635 45.2 150.335 45.2C153.135 45.2 156.135 45.7 159.335 46.7C162.535 47.7 165.485 49.35 168.185 51.65C170.985 53.85 173.285 56.8 175.085 60.5C176.985 64.2 177.935 68.8 177.935 74.3H131.735Z" stroke="black" stroke-width="1" mask="url(#path-1-outside-1)"/>
<path d="M188.585 109.4H200.135V49.25H188.585V47.15H212.735V63.2H213.035C213.635 61.9 214.485 60.25 215.585 58.25C216.785 56.25 218.385 54.3 220.385 52.4C222.385 50.5 224.885 48.9 227.885 47.6C230.885 46.2 234.535 45.5 238.835 45.5C245.435 45.5 250.785 47.1 254.885 50.3C259.085 53.5 261.185 58.6 261.185 65.6V109.4H272.735V111.5H236.735V109.4H248.285V60.95C248.285 57.05 247.335 53.85 245.435 51.35C243.635 48.85 240.785 47.6 236.885 47.6C233.685 47.6 230.635 48.3 227.735 49.7C224.835 51.1 222.285 53.05 220.085 55.55C217.885 58.05 216.135 61 214.835 64.4C213.635 67.8 213.035 71.5 213.035 75.5V109.4H224.585V111.5H188.585V109.4Z" stroke="black" stroke-width="1" mask="url(#path-1-outside-1)"/>
<path d="M329.334 72.2C329.534 70.8 329.634 69.5 329.634 68.3C329.634 67.1 329.634 65.85 329.634 64.55C329.634 61.15 329.284 58.35 328.584 56.15C327.984 53.95 327.084 52.2 325.884 50.9C324.784 49.6 323.384 48.7 321.684 48.2C320.084 47.6 318.334 47.3 316.434 47.3C313.034 47.3 310.234 48 308.034 49.4C305.834 50.7 304.084 52.5 302.784 54.8C301.484 57.1 300.484 59.75 299.784 62.75C299.184 65.75 298.784 68.9 298.584 72.2H329.334ZM298.434 74.3C298.434 75.3 298.384 76.35 298.284 77.45C298.284 78.45 298.284 79.75 298.284 81.35C298.284 84.65 298.484 88.1 298.884 91.7C299.284 95.3 300.134 98.55 301.434 101.45C302.834 104.35 304.834 106.75 307.434 108.65C310.134 110.55 313.684 111.5 318.084 111.5C322.484 111.5 326.084 110.85 328.884 109.55C331.784 108.25 334.034 106.7 335.634 104.9C337.334 103 338.584 101.1 339.384 99.2C340.184 97.3 340.784 95.75 341.184 94.55L343.434 95C343.134 96.1 342.534 97.7 341.634 99.8C340.834 101.8 339.484 103.85 337.584 105.95C335.784 107.95 333.284 109.75 330.084 111.35C326.984 112.85 322.934 113.6 317.934 113.6C312.934 113.6 308.284 112.8 303.984 111.2C299.784 109.6 296.134 107.3 293.034 104.3C289.934 101.3 287.534 97.75 285.834 93.65C284.134 89.45 283.284 84.8 283.284 79.7C283.284 75.3 284.134 71.05 285.834 66.95C287.634 62.75 290.034 59.05 293.034 55.85C296.134 52.65 299.734 50.1 303.834 48.2C307.934 46.2 312.334 45.2 317.034 45.2C319.834 45.2 322.834 45.7 326.034 46.7C329.234 47.7 332.184 49.35 334.884 51.65C337.684 53.85 339.984 56.8 341.784 60.5C343.684 64.2 344.634 68.8 344.634 74.3H298.434Z" stroke="black" stroke-width="1" mask="url(#path-1-outside-1)"/>
<path d="M355.584 109.4H367.134V49.25H355.584V47.15H379.734V62.3H380.034C380.434 60.8 381.084 59.1 381.984 57.2C382.884 55.3 384.134 53.5 385.734 51.8C387.334 50 389.234 48.5 391.434 47.3C393.734 46.1 396.484 45.5 399.684 45.5C401.984 45.5 403.984 45.9 405.684 46.7C407.384 47.4 408.784 48.35 409.884 49.55C410.984 50.65 411.784 51.95 412.284 53.45C412.784 54.95 413.034 56.45 413.034 57.95C413.034 61.25 412.284 63.45 410.784 64.55C409.284 65.65 407.534 66.2 405.534 66.2C401.134 66.2 398.934 64.8 398.934 62C398.934 61.1 399.034 60.4 399.234 59.9C399.434 59.3 399.634 58.75 399.834 58.25C400.134 57.65 400.384 57 400.584 56.3C400.784 55.6 400.884 54.6 400.884 53.3C400.884 50.1 399.134 48.5 395.634 48.5C394.034 48.5 392.334 49.1 390.534 50.3C388.734 51.5 387.034 53.25 385.434 55.55C383.934 57.85 382.634 60.65 381.534 63.95C380.534 67.15 380.034 70.85 380.034 75.05V109.4H393.084V111.5H355.584V109.4Z" stroke="black" stroke-width="1" mask="url(#path-1-outside-1)"/>
<path d="M458.068 74.75H457.768C457.568 76.05 455.918 77.35 452.818 78.65L441.568 83.15C438.368 84.45 435.918 86.3 434.218 88.7C432.518 91 431.668 93.9 431.668 97.4C431.668 98.9 431.818 100.45 432.118 102.05C432.418 103.65 432.968 105.1 433.768 106.4C434.568 107.6 435.668 108.6 437.068 109.4C438.568 110.2 440.468 110.6 442.768 110.6C446.068 110.6 448.718 109.9 450.718 108.5C452.818 107.1 454.368 105.35 455.368 103.25C456.468 101.15 457.168 98.9 457.468 96.5C457.868 94 458.068 91.75 458.068 89.75V74.75ZM484.318 109.85C483.018 110.85 481.468 111.7 479.668 112.4C477.868 113.2 475.668 113.6 473.068 113.6C468.268 113.6 464.768 112.6 462.568 110.6C460.468 108.5 459.018 105.6 458.218 101.9H457.918C457.518 102.8 456.968 103.95 456.268 105.35C455.568 106.65 454.468 107.95 452.968 109.25C451.568 110.45 449.668 111.45 447.268 112.25C444.868 113.15 441.818 113.6 438.118 113.6C433.918 113.6 430.568 113.1 428.068 112.1C425.568 111.2 423.618 110.05 422.218 108.65C420.818 107.25 419.868 105.7 419.368 104C418.968 102.2 418.768 100.55 418.768 99.05C418.768 95.55 419.468 92.75 420.868 90.65C422.268 88.55 424.068 86.9 426.268 85.7C428.568 84.4 431.068 83.35 433.768 82.55C436.568 81.75 439.368 80.9 442.168 80C445.468 78.9 448.168 77.95 450.268 77.15C452.468 76.35 454.168 75.4 455.368 74.3C456.568 73.1 457.368 71.65 457.768 69.95C458.268 68.15 458.518 65.75 458.518 62.75C458.518 60.35 458.368 58.2 458.068 56.3C457.768 54.4 457.218 52.8 456.418 51.5C455.618 50.1 454.468 49.05 452.968 48.35C451.468 47.65 449.468 47.3 446.968 47.3C443.668 47.3 440.918 47.9 438.718 49.1C436.618 50.2 435.568 52.05 435.568 54.65C435.568 56.35 435.718 58.05 436.018 59.75C436.318 61.35 436.468 62.55 436.468 63.35C436.468 64.75 435.968 65.95 434.968 66.95C433.968 67.85 432.518 68.3 430.618 68.3C427.318 68.3 425.268 67.7 424.468 66.5C423.668 65.3 423.268 63.75 423.268 61.85C423.268 59.65 423.768 57.55 424.768 55.55C425.768 53.55 427.218 51.8 429.118 50.3C431.118 48.7 433.568 47.45 436.468 46.55C439.468 45.65 442.868 45.2 446.668 45.2C451.268 45.2 455.118 45.8 458.218 47C461.318 48.1 463.818 49.65 465.718 51.65C467.618 53.55 468.968 55.75 469.768 58.25C470.568 60.65 470.968 63.2 470.968 65.9V103.25C470.968 106.15 471.418 108.1 472.318 109.1C473.218 110.1 474.518 110.6 476.218 110.6C477.318 110.6 478.468 110.4 479.668 110C480.868 109.6 482.018 109 483.118 108.2L484.318 109.85Z" stroke="black" stroke-width="1" mask="url(#path-1-outside-1)"/>
<path d="M487.385 47.15H498.935V27.8C499.735 28.1 500.485 28.35 501.185 28.55C501.885 28.75 503.085 28.85 504.785 28.85C506.285 28.85 507.585 28.7 508.685 28.4C509.785 28 510.835 27.4 511.835 26.6V47.15H533.135V49.25H511.835V98.3C511.835 101.1 512.085 103.4 512.585 105.2C513.185 106.9 513.935 108.25 514.835 109.25C515.735 110.15 516.685 110.75 517.685 111.05C518.785 111.35 519.835 111.5 520.835 111.5C524.335 111.5 527.135 110.25 529.235 107.75C531.435 105.15 532.835 102.2 533.435 98.9L535.535 99.65C535.235 100.95 534.785 102.4 534.185 104C533.585 105.6 532.635 107.15 531.335 108.65C530.135 110.05 528.535 111.2 526.535 112.1C524.535 113.1 522.035 113.6 519.035 113.6C511.535 113.6 506.285 112.15 503.285 109.25C500.385 106.35 498.935 102.25 498.935 96.95V49.25H487.385V47.15Z" stroke="black" stroke-width="1" mask="url(#path-1-outside-1)"/>
<path d="M587.586 72.2C587.786 70.8 587.886 69.5 587.886 68.3C587.886 67.1 587.886 65.85 587.886 64.55C587.886 61.15 587.536 58.35 586.836 56.15C586.236 53.95 585.336 52.2 584.136 50.9C583.036 49.6 581.636 48.7 579.936 48.2C578.336 47.6 576.586 47.3 574.686 47.3C571.286 47.3 568.486 48 566.286 49.4C564.086 50.7 562.336 52.5 561.036 54.8C559.736 57.1 558.736 59.75 558.036 62.75C557.436 65.75 557.036 68.9 556.836 72.2H587.586ZM556.686 74.3C556.686 75.3 556.636 76.35 556.536 77.45C556.536 78.45 556.536 79.75 556.536 81.35C556.536 84.65 556.736 88.1 557.136 91.7C557.536 95.3 558.386 98.55 559.686 101.45C561.086 104.35 563.086 106.75 565.686 108.65C568.386 110.55 571.936 111.5 576.336 111.5C580.736 111.5 584.336 110.85 587.136 109.55C590.036 108.25 592.286 106.7 593.886 104.9C595.586 103 596.836 101.1 597.636 99.2C598.436 97.3 599.036 95.75 599.436 94.55L601.686 95C601.386 96.1 600.786 97.7 599.886 99.8C599.086 101.8 597.736 103.85 595.836 105.95C594.036 107.95 591.536 109.75 588.336 111.35C585.236 112.85 581.186 113.6 576.186 113.6C571.186 113.6 566.536 112.8 562.236 111.2C558.036 109.6 554.386 107.3 551.286 104.3C548.186 101.3 545.786 97.75 544.086 93.65C542.386 89.45 541.536 84.8 541.536 79.7C541.536 75.3 542.386 71.05 544.086 66.95C545.886 62.75 548.286 59.05 551.286 55.85C554.386 52.65 557.986 50.1 562.086 48.2C566.186 46.2 570.586 45.2 575.286 45.2C578.086 45.2 581.086 45.7 584.286 46.7C587.486 47.7 590.436 49.35 593.136 51.65C595.936 53.85 598.236 56.8 600.036 60.5C601.936 64.2 602.886 68.8 602.886 74.3H556.686Z" stroke="black" stroke-width="1" mask="url(#path-1-outside-1)"/>
</svg>
