<svg width="405" height="114" viewBox="0 0 405 114" fill="none" xmlns="http://www.w3.org/2000/svg">
<mask id="path-1-outside-1" maskUnits="userSpaceOnUse" x="0.5" y="0.199951" width="404" height="113" fill="black">
<rect fill="white" x="0.5" y="0.199951" width="404" height="113"/>
<path d="M2.5 106.9H19.15V4.29995H2.5V2.19995H50.8V4.29995H34.15V53.3499H84.1V4.29995H67.45V2.19995H115.75V4.29995H99.1V106.9H115.75V109H67.45V106.9H84.1V55.45H34.15V106.9H50.8V109H2.5V106.9Z"/>
<path d="M142.064 76.8999C142.064 83.9999 142.614 89.65 143.714 93.85C144.814 98.05 146.264 101.3 148.064 103.6C149.864 105.8 151.964 107.25 154.364 107.95C156.764 108.65 159.314 109 162.014 109C164.714 109 167.264 108.65 169.664 107.95C172.064 107.25 174.164 105.8 175.964 103.6C177.764 101.3 179.214 98.05 180.314 93.85C181.414 89.65 181.964 83.9999 181.964 76.8999C181.964 70.8999 181.564 65.9 180.764 61.9C179.964 57.8 178.714 54.5 177.014 52C175.414 49.4 173.364 47.5499 170.864 46.4499C168.364 45.3499 165.414 44.7999 162.014 44.7999C158.614 44.7999 155.664 45.3499 153.164 46.4499C150.664 47.5499 148.564 49.4 146.864 52C145.264 54.5 144.064 57.8 143.264 61.9C142.464 65.9 142.064 70.8999 142.064 76.8999ZM127.064 76.8999C127.064 71.9999 128.114 67.45 130.214 63.25C132.414 59.05 135.164 55.45 138.464 52.45C141.864 49.3499 145.614 46.9499 149.714 45.25C153.914 43.5499 158.014 42.6999 162.014 42.6999C166.014 42.6999 170.064 43.5499 174.164 45.25C178.364 46.9499 182.114 49.3499 185.414 52.45C188.814 55.45 191.564 59.05 193.664 63.25C195.864 67.45 196.964 71.9999 196.964 76.8999C196.964 81.5999 195.964 86.05 193.964 90.25C191.964 94.35 189.314 97.9499 186.014 101.05C182.814 104.15 179.114 106.6 174.914 108.4C170.714 110.2 166.414 111.1 162.014 111.1C157.614 111.1 153.314 110.2 149.114 108.4C144.914 106.6 141.164 104.15 137.864 101.05C134.664 97.9499 132.064 94.35 130.064 90.25C128.064 86.05 127.064 81.5999 127.064 76.8999Z"/>
<path d="M206.664 106.9H218.214V46.75H206.664V44.6499H230.814V60.4H231.114C233.214 54.4 236.214 49.9999 240.114 47.1999C244.114 44.3999 248.914 43 254.514 43C259.514 43 263.914 44.0999 267.714 46.2999C271.614 48.4999 274.164 52.15 275.364 57.25H275.664C276.364 55.45 277.314 53.7 278.514 52C279.714 50.3 281.214 48.8 283.014 47.5C284.814 46.1 286.914 44.9999 289.314 44.2C291.814 43.3999 294.614 43 297.714 43C312.314 43 319.614 50.45 319.614 65.35V106.9H331.164V109H295.164V106.9H306.714V55.9C306.714 52.5 305.764 49.85 303.864 47.95C302.064 46.0499 299.564 45.0999 296.364 45.0999C293.864 45.0999 291.364 45.6 288.864 46.6C286.364 47.5 284.114 48.9 282.114 50.7999C280.114 52.6999 278.464 55.15 277.164 58.15C275.964 61.15 275.364 64.6499 275.364 68.6499V106.9H286.914V109H250.914V106.9H262.464V58C262.464 53.6 261.564 50.3499 259.764 48.2499C257.964 46.1499 255.564 45.0999 252.564 45.0999C250.464 45.0999 248.164 45.6499 245.664 46.75C243.164 47.7499 240.814 49.3999 238.614 51.6999C236.514 53.8999 234.714 56.8 233.214 60.4C231.814 64 231.114 68.4 231.114 73.6V106.9H242.664V109H206.664V106.9Z"/>
<path d="M386.982 69.7C387.182 68.3 387.282 66.9999 387.282 65.7999C387.282 64.6 387.282 63.35 387.282 62.0499C387.282 58.65 386.932 55.85 386.232 53.65C385.632 51.45 384.732 49.7 383.532 48.4C382.432 47.1 381.032 46.2 379.332 45.7C377.732 45.0999 375.982 44.7999 374.082 44.7999C370.682 44.7999 367.882 45.4999 365.682 46.8999C363.482 48.1999 361.732 49.9999 360.432 52.2999C359.132 54.5999 358.132 57.25 357.432 60.25C356.832 63.25 356.432 66.4 356.232 69.7H386.982ZM356.082 71.7999C356.082 72.8 356.032 73.85 355.932 74.95C355.932 75.95 355.932 77.25 355.932 78.85C355.932 82.15 356.132 85.5999 356.532 89.2C356.932 92.8 357.782 96.05 359.082 98.95C360.482 101.85 362.482 104.25 365.082 106.15C367.782 108.05 371.332 109 375.732 109C380.132 109 383.732 108.35 386.532 107.05C389.432 105.75 391.682 104.2 393.282 102.4C394.982 100.5 396.232 98.6 397.032 96.7C397.832 94.8 398.432 93.2499 398.832 92.0499L401.082 92.5C400.782 93.6 400.182 95.1999 399.282 97.2999C398.482 99.2999 397.132 101.35 395.232 103.45C393.432 105.45 390.932 107.25 387.732 108.85C384.632 110.35 380.582 111.1 375.582 111.1C370.582 111.1 365.932 110.3 361.632 108.7C357.432 107.1 353.782 104.8 350.682 101.8C347.582 98.7999 345.182 95.25 343.482 91.15C341.782 86.95 340.932 82.3 340.932 77.2C340.932 72.8 341.782 68.55 343.482 64.45C345.282 60.25 347.682 56.5499 350.682 53.3499C353.782 50.1499 357.382 47.6 361.482 45.7C365.582 43.7 369.982 42.6999 374.682 42.6999C377.482 42.6999 380.482 43.1999 383.682 44.2C386.882 45.2 389.832 46.85 392.532 49.15C395.332 51.35 397.632 54.3 399.432 58C401.332 61.7 402.282 66.3 402.282 71.7999H356.082Z"/>
</mask>
<path d="M2.5 106.9H19.15V4.29995H2.5V2.19995H50.8V4.29995H34.15V53.3499H84.1V4.29995H67.45V2.19995H115.75V4.29995H99.1V106.9H115.75V109H67.45V106.9H84.1V55.45H34.15V106.9H50.8V109H2.5V106.9Z" stroke="black" stroke-width="4" mask="url(#path-1-outside-1)"/>
<path d="M142.064 76.8999C142.064 83.9999 142.614 89.65 143.714 93.85C144.814 98.05 146.264 101.3 148.064 103.6C149.864 105.8 151.964 107.25 154.364 107.95C156.764 108.65 159.314 109 162.014 109C164.714 109 167.264 108.65 169.664 107.95C172.064 107.25 174.164 105.8 175.964 103.6C177.764 101.3 179.214 98.05 180.314 93.85C181.414 89.65 181.964 83.9999 181.964 76.8999C181.964 70.8999 181.564 65.9 180.764 61.9C179.964 57.8 178.714 54.5 177.014 52C175.414 49.4 173.364 47.5499 170.864 46.4499C168.364 45.3499 165.414 44.7999 162.014 44.7999C158.614 44.7999 155.664 45.3499 153.164 46.4499C150.664 47.5499 148.564 49.4 146.864 52C145.264 54.5 144.064 57.8 143.264 61.9C142.464 65.9 142.064 70.8999 142.064 76.8999ZM127.064 76.8999C127.064 71.9999 128.114 67.45 130.214 63.25C132.414 59.05 135.164 55.45 138.464 52.45C141.864 49.3499 145.614 46.9499 149.714 45.25C153.914 43.5499 158.014 42.6999 162.014 42.6999C166.014 42.6999 170.064 43.5499 174.164 45.25C178.364 46.9499 182.114 49.3499 185.414 52.45C188.814 55.45 191.564 59.05 193.664 63.25C195.864 67.45 196.964 71.9999 196.964 76.8999C196.964 81.5999 195.964 86.05 193.964 90.25C191.964 94.35 189.314 97.9499 186.014 101.05C182.814 104.15 179.114 106.6 174.914 108.4C170.714 110.2 166.414 111.1 162.014 111.1C157.614 111.1 153.314 110.2 149.114 108.4C144.914 106.6 141.164 104.15 137.864 101.05C134.664 97.9499 132.064 94.35 130.064 90.25C128.064 86.05 127.064 81.5999 127.064 76.8999Z" stroke="black" stroke-width="4" mask="url(#path-1-outside-1)"/>
<path d="M206.664 106.9H218.214V46.75H206.664V44.6499H230.814V60.4H231.114C233.214 54.4 236.214 49.9999 240.114 47.1999C244.114 44.3999 248.914 43 254.514 43C259.514 43 263.914 44.0999 267.714 46.2999C271.614 48.4999 274.164 52.15 275.364 57.25H275.664C276.364 55.45 277.314 53.7 278.514 52C279.714 50.3 281.214 48.8 283.014 47.5C284.814 46.1 286.914 44.9999 289.314 44.2C291.814 43.3999 294.614 43 297.714 43C312.314 43 319.614 50.45 319.614 65.35V106.9H331.164V109H295.164V106.9H306.714V55.9C306.714 52.5 305.764 49.85 303.864 47.95C302.064 46.0499 299.564 45.0999 296.364 45.0999C293.864 45.0999 291.364 45.6 288.864 46.6C286.364 47.5 284.114 48.9 282.114 50.7999C280.114 52.6999 278.464 55.15 277.164 58.15C275.964 61.15 275.364 64.6499 275.364 68.6499V106.9H286.914V109H250.914V106.9H262.464V58C262.464 53.6 261.564 50.3499 259.764 48.2499C257.964 46.1499 255.564 45.0999 252.564 45.0999C250.464 45.0999 248.164 45.6499 245.664 46.75C243.164 47.7499 240.814 49.3999 238.614 51.6999C236.514 53.8999 234.714 56.8 233.214 60.4C231.814 64 231.114 68.4 231.114 73.6V106.9H242.664V109H206.664V106.9Z" stroke="black" stroke-width="4" mask="url(#path-1-outside-1)"/>
<path d="M386.982 69.7C387.182 68.3 387.282 66.9999 387.282 65.7999C387.282 64.6 387.282 63.35 387.282 62.0499C387.282 58.65 386.932 55.85 386.232 53.65C385.632 51.45 384.732 49.7 383.532 48.4C382.432 47.1 381.032 46.2 379.332 45.7C377.732 45.0999 375.982 44.7999 374.082 44.7999C370.682 44.7999 367.882 45.4999 365.682 46.8999C363.482 48.1999 361.732 49.9999 360.432 52.2999C359.132 54.5999 358.132 57.25 357.432 60.25C356.832 63.25 356.432 66.4 356.232 69.7H386.982ZM356.082 71.7999C356.082 72.8 356.032 73.85 355.932 74.95C355.932 75.95 355.932 77.25 355.932 78.85C355.932 82.15 356.132 85.5999 356.532 89.2C356.932 92.8 357.782 96.05 359.082 98.95C360.482 101.85 362.482 104.25 365.082 106.15C367.782 108.05 371.332 109 375.732 109C380.132 109 383.732 108.35 386.532 107.05C389.432 105.75 391.682 104.2 393.282 102.4C394.982 100.5 396.232 98.6 397.032 96.7C397.832 94.8 398.432 93.2499 398.832 92.0499L401.082 92.5C400.782 93.6 400.182 95.1999 399.282 97.2999C398.482 99.2999 397.132 101.35 395.232 103.45C393.432 105.45 390.932 107.25 387.732 108.85C384.632 110.35 380.582 111.1 375.582 111.1C370.582 111.1 365.932 110.3 361.632 108.7C357.432 107.1 353.782 104.8 350.682 101.8C347.582 98.7999 345.182 95.25 343.482 91.15C341.782 86.95 340.932 82.3 340.932 77.2C340.932 72.8 341.782 68.55 343.482 64.45C345.282 60.25 347.682 56.5499 350.682 53.3499C353.782 50.1499 357.382 47.6 361.482 45.7C365.582 43.7 369.982 42.6999 374.682 42.6999C377.482 42.6999 380.482 43.1999 383.682 44.2C386.882 45.2 389.832 46.85 392.532 49.15C395.332 51.35 397.632 54.3 399.432 58C401.332 61.7 402.282 66.3 402.282 71.7999H356.082Z" stroke="black" stroke-width="4" mask="url(#path-1-outside-1)"/>
</svg>
