<svg width="434" height="115" viewBox="0 0 434 115" fill="none" xmlns="http://www.w3.org/2000/svg">
<mask id="path-1-outside-1" maskUnits="userSpaceOnUse" x="0" y="0" width="434" height="115" fill="black">
<rect fill="white" width="434" height="115"/>
<path d="M2 3.35H47.15V5.45H31.55L62.45 92.45H62.75L82.7 37.1L71.3 5.45H58.7V3.35H103.7V5.45H87.35L118.25 92.45H118.55L150.05 5.45H134V3.35H166.1V5.45H152.6L113.75 112.4H110L84.2 40.4H83.9L57.8 112.4H53.75L15.5 5.45H2V3.35Z"/>
<path d="M171.441 78.05C171.441 85.15 171.991 90.8 173.091 95C174.191 99.2 175.641 102.45 177.441 104.75C179.241 106.95 181.341 108.4 183.741 109.1C186.141 109.8 188.691 110.15 191.391 110.15C194.091 110.15 196.641 109.8 199.041 109.1C201.441 108.4 203.541 106.95 205.341 104.75C207.141 102.45 208.591 99.2 209.691 95C210.791 90.8 211.341 85.15 211.341 78.05C211.341 72.05 210.941 67.05 210.141 63.05C209.341 58.95 208.091 55.65 206.391 53.15C204.791 50.55 202.741 48.7 200.241 47.6C197.741 46.5 194.791 45.95 191.391 45.95C187.991 45.95 185.041 46.5 182.541 47.6C180.041 48.7 177.941 50.55 176.241 53.15C174.641 55.65 173.441 58.95 172.641 63.05C171.841 67.05 171.441 72.05 171.441 78.05ZM156.441 78.05C156.441 73.15 157.491 68.6 159.591 64.4C161.791 60.2 164.541 56.6 167.841 53.6C171.241 50.5 174.991 48.1 179.091 46.4C183.291 44.7 187.391 43.85 191.391 43.85C195.391 43.85 199.441 44.7 203.541 46.4C207.741 48.1 211.491 50.5 214.791 53.6C218.191 56.6 220.941 60.2 223.041 64.4C225.241 68.6 226.341 73.15 226.341 78.05C226.341 82.75 225.341 87.2 223.341 91.4C221.341 95.5 218.691 99.1 215.391 102.2C212.191 105.3 208.491 107.75 204.291 109.55C200.091 111.35 195.791 112.25 191.391 112.25C186.991 112.25 182.691 111.35 178.491 109.55C174.291 107.75 170.541 105.3 167.241 102.2C164.041 99.1 161.441 95.5 159.441 91.4C157.441 87.2 156.441 82.75 156.441 78.05Z"/>
<path d="M237.091 108.05H248.641V47.9H237.091V45.8H261.241V60.95H261.541C261.941 59.45 262.591 57.75 263.491 55.85C264.391 53.95 265.641 52.15 267.241 50.45C268.841 48.65 270.741 47.15 272.941 45.95C275.241 44.75 277.991 44.15 281.191 44.15C283.491 44.15 285.491 44.55 287.191 45.35C288.891 46.05 290.291 47 291.391 48.2C292.491 49.3 293.291 50.6 293.791 52.1C294.291 53.6 294.541 55.1 294.541 56.6C294.541 59.9 293.791 62.1 292.291 63.2C290.791 64.3 289.041 64.85 287.041 64.85C282.641 64.85 280.441 63.45 280.441 60.65C280.441 59.75 280.541 59.05 280.741 58.55C280.941 57.95 281.141 57.4 281.341 56.9C281.641 56.3 281.891 55.65 282.091 54.95C282.291 54.25 282.391 53.25 282.391 51.95C282.391 48.75 280.641 47.15 277.141 47.15C275.541 47.15 273.841 47.75 272.041 48.95C270.241 50.15 268.541 51.9 266.941 54.2C265.441 56.5 264.141 59.3 263.041 62.6C262.041 65.8 261.541 69.5 261.541 73.7V108.05H274.591V110.15H237.091V108.05Z"/>
<path d="M298.325 108.05H309.875V4.1H298.325V2H322.775V73.7H324.425L354.275 47.9H343.625V45.8H366.875V47.9H357.875L334.475 68L367.625 108.05H374.075V110.15H340.325V108.05H350.975L324.425 75.8H322.775V108.05H331.025V110.15H298.325V108.05Z"/>
<path d="M383.091 89.15H384.741C385.441 91.55 386.341 94 387.441 96.5C388.541 98.9 389.991 101.15 391.791 103.25C393.691 105.25 395.991 106.9 398.691 108.2C401.391 109.5 404.641 110.15 408.441 110.15C411.641 110.15 414.491 109.2 416.991 107.3C419.491 105.3 420.741 102.1 420.741 97.7C420.741 93.9 419.741 91.25 417.741 89.75C415.841 88.15 413.591 86.9 410.991 86L399.291 81.95C397.791 81.45 396.141 80.85 394.341 80.15C392.641 79.35 391.041 78.3 389.541 77C388.041 75.6 386.791 73.85 385.791 71.75C384.891 69.65 384.441 66.95 384.441 63.65C384.441 60.85 384.991 58.25 386.091 55.85C387.191 53.45 388.691 51.35 390.591 49.55C392.491 47.75 394.741 46.35 397.341 45.35C400.041 44.35 402.941 43.85 406.041 43.85C408.241 43.85 409.991 44.05 411.291 44.45C412.691 44.75 413.891 45.1 414.891 45.5C415.891 45.8 416.791 46.15 417.591 46.55C418.391 46.85 419.341 47 420.441 47C421.541 47 422.341 46.6 422.841 45.8H424.491V62.9H422.841C422.141 60.7 421.341 58.6 420.441 56.6C419.541 54.5 418.441 52.65 417.141 51.05C415.941 49.45 414.391 48.2 412.491 47.3C410.691 46.4 408.541 45.95 406.041 45.95C401.241 45.95 397.491 47.05 394.791 49.25C392.191 51.35 390.891 54.2 390.891 57.8C390.891 61 391.991 63.45 394.191 65.15C396.491 66.75 399.841 68.25 404.241 69.65L415.191 73.25C419.891 74.85 423.741 77.05 426.741 79.85C429.741 82.65 431.241 86.35 431.241 90.95C431.241 93.65 430.691 96.3 429.591 98.9C428.591 101.5 427.041 103.8 424.941 105.8C422.941 107.7 420.441 109.25 417.441 110.45C414.541 111.65 411.191 112.25 407.391 112.25C405.191 112.25 403.141 112 401.241 111.5C399.441 111.1 397.741 110.65 396.141 110.15C394.641 109.65 393.241 109.2 391.941 108.8C390.641 108.3 389.441 108.05 388.341 108.05C387.241 108.05 386.441 108.3 385.941 108.8C385.441 109.2 385.041 109.65 384.741 110.15H383.091V89.15Z"/>
</mask>
<path d="M2 3.35H47.15V5.45H31.55L62.45 92.45H62.75L82.7 37.1L71.3 5.45H58.7V3.35H103.7V5.45H87.35L118.25 92.45H118.55L150.05 5.45H134V3.35H166.1V5.45H152.6L113.75 112.4H110L84.2 40.4H83.9L57.8 112.4H53.75L15.5 5.45H2V3.35Z" stroke="white" stroke-width="4" mask="url(#path-1-outside-1)"/>
<path d="M171.441 78.05C171.441 85.15 171.991 90.8 173.091 95C174.191 99.2 175.641 102.45 177.441 104.75C179.241 106.95 181.341 108.4 183.741 109.1C186.141 109.8 188.691 110.15 191.391 110.15C194.091 110.15 196.641 109.8 199.041 109.1C201.441 108.4 203.541 106.95 205.341 104.75C207.141 102.45 208.591 99.2 209.691 95C210.791 90.8 211.341 85.15 211.341 78.05C211.341 72.05 210.941 67.05 210.141 63.05C209.341 58.95 208.091 55.65 206.391 53.15C204.791 50.55 202.741 48.7 200.241 47.6C197.741 46.5 194.791 45.95 191.391 45.95C187.991 45.95 185.041 46.5 182.541 47.6C180.041 48.7 177.941 50.55 176.241 53.15C174.641 55.65 173.441 58.95 172.641 63.05C171.841 67.05 171.441 72.05 171.441 78.05ZM156.441 78.05C156.441 73.15 157.491 68.6 159.591 64.4C161.791 60.2 164.541 56.6 167.841 53.6C171.241 50.5 174.991 48.1 179.091 46.4C183.291 44.7 187.391 43.85 191.391 43.85C195.391 43.85 199.441 44.7 203.541 46.4C207.741 48.1 211.491 50.5 214.791 53.6C218.191 56.6 220.941 60.2 223.041 64.4C225.241 68.6 226.341 73.15 226.341 78.05C226.341 82.75 225.341 87.2 223.341 91.4C221.341 95.5 218.691 99.1 215.391 102.2C212.191 105.3 208.491 107.75 204.291 109.55C200.091 111.35 195.791 112.25 191.391 112.25C186.991 112.25 182.691 111.35 178.491 109.55C174.291 107.75 170.541 105.3 167.241 102.2C164.041 99.1 161.441 95.5 159.441 91.4C157.441 87.2 156.441 82.75 156.441 78.05Z" stroke="white" stroke-width="4" mask="url(#path-1-outside-1)"/>
<path d="M237.091 108.05H248.641V47.9H237.091V45.8H261.241V60.95H261.541C261.941 59.45 262.591 57.75 263.491 55.85C264.391 53.95 265.641 52.15 267.241 50.45C268.841 48.65 270.741 47.15 272.941 45.95C275.241 44.75 277.991 44.15 281.191 44.15C283.491 44.15 285.491 44.55 287.191 45.35C288.891 46.05 290.291 47 291.391 48.2C292.491 49.3 293.291 50.6 293.791 52.1C294.291 53.6 294.541 55.1 294.541 56.6C294.541 59.9 293.791 62.1 292.291 63.2C290.791 64.3 289.041 64.85 287.041 64.85C282.641 64.85 280.441 63.45 280.441 60.65C280.441 59.75 280.541 59.05 280.741 58.55C280.941 57.95 281.141 57.4 281.341 56.9C281.641 56.3 281.891 55.65 282.091 54.95C282.291 54.25 282.391 53.25 282.391 51.95C282.391 48.75 280.641 47.15 277.141 47.15C275.541 47.15 273.841 47.75 272.041 48.95C270.241 50.15 268.541 51.9 266.941 54.2C265.441 56.5 264.141 59.3 263.041 62.6C262.041 65.8 261.541 69.5 261.541 73.7V108.05H274.591V110.15H237.091V108.05Z" stroke="white" stroke-width="4" mask="url(#path-1-outside-1)"/>
<path d="M298.325 108.05H309.875V4.1H298.325V2H322.775V73.7H324.425L354.275 47.9H343.625V45.8H366.875V47.9H357.875L334.475 68L367.625 108.05H374.075V110.15H340.325V108.05H350.975L324.425 75.8H322.775V108.05H331.025V110.15H298.325V108.05Z" stroke="white" stroke-width="4" mask="url(#path-1-outside-1)"/>
<path d="M383.091 89.15H384.741C385.441 91.55 386.341 94 387.441 96.5C388.541 98.9 389.991 101.15 391.791 103.25C393.691 105.25 395.991 106.9 398.691 108.2C401.391 109.5 404.641 110.15 408.441 110.15C411.641 110.15 414.491 109.2 416.991 107.3C419.491 105.3 420.741 102.1 420.741 97.7C420.741 93.9 419.741 91.25 417.741 89.75C415.841 88.15 413.591 86.9 410.991 86L399.291 81.95C397.791 81.45 396.141 80.85 394.341 80.15C392.641 79.35 391.041 78.3 389.541 77C388.041 75.6 386.791 73.85 385.791 71.75C384.891 69.65 384.441 66.95 384.441 63.65C384.441 60.85 384.991 58.25 386.091 55.85C387.191 53.45 388.691 51.35 390.591 49.55C392.491 47.75 394.741 46.35 397.341 45.35C400.041 44.35 402.941 43.85 406.041 43.85C408.241 43.85 409.991 44.05 411.291 44.45C412.691 44.75 413.891 45.1 414.891 45.5C415.891 45.8 416.791 46.15 417.591 46.55C418.391 46.85 419.341 47 420.441 47C421.541 47 422.341 46.6 422.841 45.8H424.491V62.9H422.841C422.141 60.7 421.341 58.6 420.441 56.6C419.541 54.5 418.441 52.65 417.141 51.05C415.941 49.45 414.391 48.2 412.491 47.3C410.691 46.4 408.541 45.95 406.041 45.95C401.241 45.95 397.491 47.05 394.791 49.25C392.191 51.35 390.891 54.2 390.891 57.8C390.891 61 391.991 63.45 394.191 65.15C396.491 66.75 399.841 68.25 404.241 69.65L415.191 73.25C419.891 74.85 423.741 77.05 426.741 79.85C429.741 82.65 431.241 86.35 431.241 90.95C431.241 93.65 430.691 96.3 429.591 98.9C428.591 101.5 427.041 103.8 424.941 105.8C422.941 107.7 420.441 109.25 417.441 110.45C414.541 111.65 411.191 112.25 407.391 112.25C405.191 112.25 403.141 112 401.241 111.5C399.441 111.1 397.741 110.65 396.141 110.15C394.641 109.65 393.241 109.2 391.941 108.8C390.641 108.3 389.441 108.05 388.341 108.05C387.241 108.05 386.441 108.3 385.941 108.8C385.441 109.2 385.041 109.65 384.741 110.15H383.091V89.15Z" stroke="white" stroke-width="4" mask="url(#path-1-outside-1)"/>
</svg>
